<?xml version="1.0"?><svg viewBox="-40 -30 320 480" xmlns="http://www.w3.org/2000/svg">
 <title>red socks</title>
 <g>
  <path fill="black" d="m189.375,27.711c5.804993,12.109999 -1.606995,28.434999 1.867996,42.344c2.975006,11.903999 11.815002,24.413002 7.783005,36.894997c-2.884995,8.933006 -14.589005,11.327003 -17.434998,19.382004c-2.98201,8.440994 7.194992,23.110001 9.496002,31.367996c5.177994,18.576996 5.539993,41.02301 3.423996,60.089005c-1.983002,17.869003 -14.488998,25.513992 -26.309006,36.584991c-17.819,16.688019 -28.446991,35.832001 -39.384995,54.951019c-13.112999,22.918976 -29.994003,51.834991 -64.604996,56.509979c-22.075005,2.980011 -50.192005,-23.634003 -48.102005,-44.522003c2.958,-29.546997 11.138,-39.964996 25.687,-64.294006c12.551998,-20.991989 19.126999,-39.113998 22.649998,-63.748993c1.948997,-13.630005 6.196007,-25.901001 6.149002,-40.552994c-0.082001,-26.087006 -6.638,-11.578003 -19.303001,-23.973999c-11.539001,-11.293007 -0.786999,-45.348007 -1.401001,-60.089005c-1.153,-27.702003 -7.590996,-46.430002 27.865005,-47.480001c23.059998,-0.683001 46.723999,-3.27 69.741989,-3.27c11.533005,0 25.489014,-6.104 35.806,1.868c2.755005,2.129009 4.748001,4.74201 6.070007,7.939011" id="path13"/>
  <path d="m181.901993,32.226002c2.056992,7.815998 -2.496002,19.375999 -1.556,28.644997c1.261002,12.446003 6.89299,23.445004 10.195999,35.337002c5.865997,21.119003 -47.792999,23.869003 -63.437004,23.506996c-17.334,-0.399994 -31.611,-1.939995 -48.415001,4.359001c-23.050999,8.640999 -22.881996,-8.752998 -21.949997,-25.686996c0.937,-16.990997 -9.347,-60.512001 7.473,-68.339991c13.887001,-6.463001 45.851997,-0.185001 61.804001,-1.557001c13.562019,-1.167009 48.989006,-12.544009 55.885002,3.735992" id="path21" fill="#FFFFFF"/>
  <path d="m173.651993,35.183998c-4.550003,9.152 -18.143997,11.639004 -27.555008,13.232002c-10.609985,1.796001 -23.031998,2.128998 -33.780998,2.491001c-11.900993,0.398998 -29.340996,3.448997 -41.019997,0.778c-13.923,-3.184002 -15.578999,-17.937 -4.280998,-16.501003c-2.486,-0.315998 -1.114006,7.358002 4.359001,9.029003c9.349998,2.855 10.813995,-3.296001 11.830994,-9.029003c-1.796997,15.686001 21.785004,11.080002 17.125,-3.736998c1.038002,0 2.076004,0 3.114006,0c-6.205002,20.343 21.609001,9.149 31.290016,8.873999c-0.873016,-2.216 -1.14502,-6.139999 -2.181,-8.873999c0.727997,0 1.453995,0 2.181,0c1.000992,13.746 14.384995,10.784998 23.973984,5.915998c5.811005,-2.950001 15.756012,-16.754 14.944,-2.179001" id="path23"/>
  <path d="m150.455994,30.669001c-0.161011,3.622999 2.007996,5.176001 -1.557007,6.693998c-1.28299,-3.472 1.580017,-7.054998 1.557007,-6.693998" id="path25"/>
  <path d="m66.703995,53.865002c2.672005,15.474995 9.305008,40.940998 3.114006,55.263996c-3.851006,-6.139 0.879997,-10.282997 0.310997,-18.213997c-0.890999,-12.43 -11.856998,-26.336998 -3.425003,-37.049999" id="path35"/>
  <path d="m112.316002,65.072998c-0.717003,9.425003 -0.049004,19.633003 3.269997,28.487999c1.231003,3.287003 6.694,21.389999 0,13.233002c-9.987999,-12.171997 -2.138,-37.329002 -9.962997,-50.75c4.427002,1.392002 4.916,4.529003 6.693001,9.028999" id="path37"/>
  <path d="m92.858002,92.626999c1.611,4.639 2.384995,9.593002 3.736,14.321999c-7.727005,-0.639 -13.548004,-42.144997 -9.652,-49.347996c3.484001,11.454998 2.980995,23.482998 5.916,35.025997" id="path39"/>
  <path d="m139.09201,67.875999c2.018982,11.173004 4.866989,28.419998 4.669983,36.737999c-12.397995,-8.091995 -4.819992,-31.909996 -9.028992,-44.834c5.925995,0.659 3.945999,3.659 4.359009,8.096001" id="path41"/>
  <path d="m163.222,70.988998c2.087997,7.832001 5.783997,25.024002 2.957993,31.445999c-5.694,-12.085999 -5.765991,-28.223 -9.028,-42.654999c3.590012,3.199001 4.616013,6.681 6.070007,11.209" id="path43"/>
  <path d="m173.651993,121.893997c1.722,13.462997 5.608002,25.667999 9.028992,36.738998c5.081009,16.447998 -0.802002,13.447006 -16.422989,20.393997c-35.02301,15.574005 -22.503006,52.382004 -6.771011,72.855011c-25.284988,15.938004 -26.787003,52.172989 -48.570992,70.986984c-19.366005,-25.024994 -48.111004,-36.569977 -80.016993,-35.18399c9.314989,-19.483002 23.589998,-34.526993 33.31399,-56.819992c7.047005,-16.156006 9.286003,-34.100998 11.987007,-50.75c0.854004,-5.261002 1.258003,-14.452011 1.868004,-21.172012c1.560997,-17.194992 -8.161011,-24.478989 11.052002,-30.199997c15.103996,-4.496994 32.906998,0.452011 48.259987,-0.154999c12.585007,-0.496994 23.703003,-5.837997 36.272003,-6.694" class="path47" fill="#ff0000"/>
  <path d="m187.039001,186.031998c0.865997,26.009003 -1.692001,45.020004 -23.194,62.115005c-9.992004,-11.333008 -23.475006,-33.652008 -11.908997,-48.261002c3.401001,-4.296997 37.580994,-35.298996 35.102997,-13.854004" id="path51" fill="#ffffff"/>
  <path d="m50.358002,293.756989c15.569,3.382996 53.806,12.062012 56.198997,31.134003c2.298004,18.311005 -39.710999,36.154999 -56.666,30.355988c-26.816999,-9.171967 -41.489999,-76.888977 0.467003,-61.48999" id="path53" fill="#ffffff"/>
  <title>Layer 1</title>
 </g>
</svg>